<svg version="1.1" id="Layer_1" xmlns="http://www.w3.org/2000/svg" xmlns:xlink="http://www.w3.org/1999/xlink" x="0px" y="0px"
	 width="100%" viewBox="0 0 130 130" enable-background="new 0 0 130 130" xml:space="preserve">
<path fill="#FDFDFD" opacity="1.000000" stroke="none" 
	d="
M59.000000,131.000000 
	C39.333336,131.000000 20.166672,131.000000 1.000005,131.000000 
	C1.000003,87.666672 1.000003,44.333347 1.000002,1.000017 
	C44.333324,1.000011 87.666649,1.000011 130.999969,1.000006 
	C130.999985,44.333317 130.999985,87.666634 131.000000,130.999969 
	C107.166664,131.000000 83.333336,131.000000 59.000000,131.000000 
M17.277216,81.989937 
	C13.686023,81.989937 10.094831,81.989937 6.503637,81.989937 
	C6.480770,82.297318 6.457903,82.604698 6.435036,82.912086 
	C10.300122,83.261497 14.165209,83.610916 18.882565,84.048660 
	C27.641790,84.968765 36.411366,85.801559 45.156803,86.837990 
	C51.576160,87.598763 52.684803,89.586967 50.066643,96.959496 
	C52.377163,97.142342 54.409981,97.044594 56.298172,97.520569 
	C58.474545,98.069191 61.059887,98.597328 62.510460,100.074379 
	C65.154427,102.766609 66.776428,102.757668 69.395996,100.205612 
	C70.954971,98.686829 73.705467,98.287849 75.994827,97.655128 
	C77.784988,97.160362 79.689819,97.080475 81.738022,96.788551 
	C79.222534,89.424774 80.238258,87.616577 87.172699,86.752815 
	C96.077248,85.643646 105.022148,84.858505 114.819771,84.109940 
	C118.037460,83.709045 121.255157,83.308159 124.472847,82.907265 
	C124.442772,82.541039 124.412697,82.174820 124.382622,81.808594 
	C120.860283,81.970718 117.337936,82.132843 112.904037,82.275398 
	C100.112648,82.275398 87.321259,82.275398 74.703743,82.275398 
	C73.235504,89.214493 70.452034,91.992401 65.783775,91.810104 
	C61.110348,91.627602 58.607880,88.990227 57.384464,82.294167 
	C44.418594,82.294167 31.297800,82.294167 17.277216,81.989937 
M83.041435,62.724953 
	C86.015907,62.724953 88.990372,62.724953 91.964844,62.724953 
	C91.970200,62.245766 91.975548,61.766582 91.980904,61.287395 
	C90.776848,61.072163 89.572800,60.856926 87.519463,60.489872 
	C89.337479,59.109070 90.602173,58.148514 91.942825,57.130268 
	C91.688400,56.133781 90.754166,54.623985 91.156784,53.691223 
	C93.248924,48.844227 89.920837,49.890129 87.512604,50.248795 
	C84.784698,50.655064 82.107056,51.398911 79.152061,52.052490 
	C78.504936,44.739159 80.618721,37.285534 75.529816,30.220316 
	C71.275879,34.221714 71.443665,39.797600 70.239098,44.457645 
	C62.870651,45.093094 55.535637,45.324425 48.364437,46.530109 
	C45.242035,47.055073 40.194431,44.274792 39.131363,49.521965 
	C38.437237,52.948109 39.349373,56.768951 39.957985,60.342140 
	C40.114532,61.261250 41.843075,61.912601 43.701553,62.980068 
	C45.185684,62.885586 46.669811,62.791100 49.070534,62.739143 
	C58.995708,62.717697 68.920883,62.696251 79.652283,62.957554 
	C80.490189,62.861877 81.328102,62.766201 83.041435,62.724953 
M7.682797,62.065994 
	C6.361763,62.537308 5.040729,63.008621 4.789362,63.098301 
	C14.876558,63.098301 25.866594,63.098301 37.184788,63.098301 
	C36.666508,59.547234 36.288692,56.958584 35.872379,54.106167 
	C26.484262,56.779762 17.460485,59.349602 7.682797,62.065994 
M94.901917,60.632080 
	C95.466087,61.408379 96.021416,62.854034 96.595741,62.861622 
	C106.931160,62.998177 117.268867,62.960979 126.797340,62.960979 
	C117.153191,60.207367 106.624901,57.201313 95.822128,54.116886 
	C95.480545,56.478306 95.244095,58.112942 94.901917,60.632080 
M27.390709,68.941124 
	C26.506653,68.229790 25.622595,67.518456 24.663696,66.746902 
	C24.663696,71.291801 24.663696,75.157585 24.663696,79.023369 
	C25.042088,79.026138 25.420479,79.028908 25.798870,79.031677 
	C26.120205,77.017929 26.441538,75.004181 26.810215,72.693741 
	C29.172663,75.195541 31.151356,77.290955 33.378685,79.649666 
	C33.378685,74.758446 33.378685,70.858620 33.378685,66.958786 
	C32.949146,66.961617 32.519611,66.964439 32.090073,66.967270 
	C31.892746,68.928093 31.695419,70.888924 31.409824,73.726883 
	C29.889965,71.912476 28.889643,70.718292 27.390709,68.941124 
M114.214844,67.760933 
	C112.002563,68.094276 108.529091,67.673637 107.799797,68.893555 
	C104.888390,73.763573 111.841148,72.948662 112.991478,76.458557 
	C110.636429,76.180618 108.774979,75.960938 105.848190,75.615532 
	C108.943764,79.445808 111.902374,80.428360 114.290436,77.836967 
	C115.399933,76.632988 114.479919,73.558746 114.479919,71.332329 
	C114.235123,71.364021 113.990326,71.395714 113.745529,71.427406 
	C114.121834,70.325012 114.498138,69.222626 114.214844,67.760933 
M91.167816,68.885956 
	C91.196602,71.035576 90.726364,73.363953 91.412071,75.278259 
	C91.960518,76.809372 93.836830,78.734909 95.264816,78.858704 
	C97.014709,79.010406 100.197464,77.786316 100.493179,76.594452 
	C101.248367,73.550690 100.744820,70.194611 100.744820,66.963478 
	C100.073944,66.944206 99.403061,66.924942 98.732185,66.905670 
	C98.732185,68.856834 99.067108,70.888443 98.623993,72.733170 
	C98.282425,74.155106 96.963676,75.342316 96.079422,76.633896 
	C95.324654,75.411369 94.269623,74.272789 93.897873,72.943169 
	C93.510620,71.558113 93.925888,69.961548 93.652687,68.521515 
	C93.593826,68.211266 92.091225,68.174919 91.167816,68.885956 
M49.236549,69.108025 
	C49.135540,68.423302 49.034531,67.738571 48.933517,67.053848 
	C48.276459,67.391350 47.304203,67.562363 47.021511,68.097595 
	C46.177029,69.696480 45.602741,71.438072 44.771690,73.499031 
	C43.240463,70.714241 42.092041,68.625633 40.943615,66.537025 
	C40.384026,66.827095 39.824432,67.117172 39.264839,67.407242 
	C40.877533,71.426826 42.490227,75.446411 44.102921,79.465996 
	C44.611729,79.328278 45.120533,79.190552 45.629337,79.052834 
	C46.768818,75.982315 47.908298,72.911804 49.236549,69.108025 
M72.141571,75.915993 
	C71.429031,75.955116 70.707726,76.083221 70.005836,76.014137 
	C68.697319,75.885361 66.635857,76.049095 66.266739,75.356339 
	C65.617706,74.138237 65.553673,72.161743 66.125008,70.902153 
	C66.486626,70.104912 68.420578,69.885132 69.693115,69.685661 
	C70.508141,69.557899 71.402939,69.938988 72.639099,70.159119 
	C70.241356,66.618591 67.745987,65.949554 65.200935,67.791412 
	C62.557362,69.704575 61.865799,74.725388 64.257965,77.194260 
	C67.068306,80.094711 70.051781,80.108223 72.141571,75.915993 
M82.197037,78.989616 
	C82.562408,77.710670 82.976242,76.443214 83.282814,75.150330 
	C83.878426,72.638527 84.413811,70.112442 84.987404,67.532639 
	C83.349426,67.532639 80.845268,67.532639 79.072266,67.532639 
	C79.784256,69.768204 80.538361,71.591988 80.918907,73.490654 
	C81.268570,75.235229 81.215904,77.060448 82.197037,78.989616 
M16.692942,78.821487 
	C17.310572,78.791176 18.468151,78.772217 18.469063,78.728928 
	C18.551769,74.794884 18.545830,70.858978 18.545830,66.923195 
	C17.890587,66.896324 17.235344,66.869446 16.580099,66.842567 
	C16.470940,70.569427 16.361782,74.296280 16.692942,78.821487 
M56.310966,79.015266 
	C58.802898,74.967720 57.608463,71.022041 56.905254,67.062790 
	C56.413227,67.060898 55.921200,67.059006 55.429173,67.057106 
	C55.429173,70.989929 55.429173,74.922745 56.310966,79.015266 
z"/>
<path fill="#0A0A0A" opacity="1.000000" stroke="none" 
	d="
M42.849461,62.686958 
	C41.843075,61.912601 40.114532,61.261250 39.957985,60.342140 
	C39.349373,56.768951 38.437237,52.948109 39.131363,49.521965 
	C40.194431,44.274792 45.242035,47.055073 48.364437,46.530109 
	C55.535637,45.324425 62.870651,45.093094 70.239098,44.457645 
	C71.443665,39.797600 71.275879,34.221714 75.529816,30.220316 
	C80.618721,37.285534 78.504936,44.739159 79.152061,52.052490 
	C82.107056,51.398911 84.784698,50.655064 87.512604,50.248795 
	C89.920837,49.890129 93.248924,48.844227 91.156784,53.691223 
	C90.754166,54.623985 91.688400,56.133781 91.942825,57.130268 
	C90.602173,58.148514 89.337479,59.109070 87.519463,60.489872 
	C89.572800,60.856926 90.776848,61.072163 91.980904,61.287395 
	C91.975548,61.766582 91.970200,62.245766 91.964844,62.724953 
	C88.990372,62.724953 86.015907,62.724953 82.633255,62.334618 
	C81.895767,61.299580 81.566444,60.654881 81.237129,60.010178 
	C80.440109,60.898388 79.643089,61.786598 78.846062,62.674805 
	C68.920883,62.696251 58.995708,62.717697 48.613106,62.326134 
	C47.241127,60.947735 46.326580,59.982346 45.412029,59.016953 
	C44.557842,60.240288 43.703651,61.463623 42.849461,62.686958 
z"/>
<path fill="#080808" opacity="1.000000" stroke="none" 
	d="
M113.949669,83.933762 
	C105.022148,84.858505 96.077248,85.643646 87.172699,86.752815 
	C80.238258,87.616577 79.222534,89.424774 81.738022,96.788551 
	C79.689819,97.080475 77.784988,97.160362 75.994827,97.655128 
	C73.705467,98.287849 70.954971,98.686829 69.395996,100.205612 
	C66.776428,102.757668 65.154427,102.766609 62.510460,100.074379 
	C61.059887,98.597328 58.474545,98.069191 56.298172,97.520569 
	C54.409981,97.044594 52.377163,97.142342 50.066643,96.959496 
	C52.684803,89.586967 51.576160,87.598763 45.156803,86.837990 
	C36.411366,85.801559 27.641790,84.968765 18.381147,83.725960 
	C17.978823,83.033562 18.077913,82.663864 18.177006,82.294167 
	C31.297800,82.294167 44.418594,82.294167 57.384464,82.294167 
	C58.607880,88.990227 61.110348,91.627602 65.783775,91.810104 
	C70.452034,91.992401 73.235504,89.214493 74.703743,82.275398 
	C87.321259,82.275398 100.112648,82.275398 113.377289,82.564751 
	C113.883583,83.213989 113.916626,83.573875 113.949669,83.933762 
z"/>
<path fill="#111111" opacity="1.000000" stroke="none" 
	d="
M8.059752,61.992714 
	C17.460485,59.349602 26.484262,56.779762 35.872379,54.106167 
	C36.288692,56.958584 36.666508,59.547234 37.184788,63.098301 
	C25.866594,63.098301 14.876558,63.098301 4.789362,63.098301 
	C5.040729,63.008621 6.361763,62.537308 8.059752,61.992714 
z"/>
<path fill="#0F0F0F" opacity="1.000000" stroke="none" 
	d="
M94.954773,60.189827 
	C95.244095,58.112942 95.480545,56.478306 95.822128,54.116886 
	C106.624901,57.201313 117.153191,60.207367 126.797340,62.960979 
	C117.268867,62.960979 106.931160,62.998177 96.595741,62.861622 
	C96.021416,62.854034 95.466087,61.408379 94.954773,60.189827 
z"/>
<path fill="#111111" opacity="1.000000" stroke="none" 
	d="
M27.640015,69.232620 
	C28.889643,70.718292 29.889965,71.912476 31.409824,73.726883 
	C31.695419,70.888924 31.892746,68.928093 32.090073,66.967270 
	C32.519611,66.964439 32.949146,66.961617 33.378685,66.958786 
	C33.378685,70.858620 33.378685,74.758446 33.378685,79.649666 
	C31.151356,77.290955 29.172663,75.195541 26.810215,72.693741 
	C26.441538,75.004181 26.120205,77.017929 25.798870,79.031677 
	C25.420479,79.028908 25.042088,79.026138 24.663696,79.023369 
	C24.663696,75.157585 24.663696,71.291801 24.663696,66.746902 
	C25.622595,67.518456 26.506653,68.229790 27.640015,69.232620 
z"/>
<path fill="#222222" opacity="1.000000" stroke="none" 
	d="
M114.544640,67.940582 
	C114.498138,69.222626 114.121834,70.325012 113.745529,71.427406 
	C113.990326,71.395714 114.235123,71.364021 114.479919,71.332329 
	C114.479919,73.558746 115.399933,76.632988 114.290436,77.836967 
	C111.902374,80.428360 108.943764,79.445808 105.848190,75.615532 
	C108.774979,75.960938 110.636429,76.180618 112.991478,76.458557 
	C111.841148,72.948662 104.888390,73.763573 107.799797,68.893555 
	C108.529091,67.673637 112.002563,68.094276 114.544640,67.940582 
M113.324524,70.580032 
	C112.419998,70.200630 111.515472,69.821228 110.610947,69.441826 
	C110.460854,69.830795 110.310768,70.219772 110.160675,70.608749 
	C111.066452,70.912811 111.972221,71.216873 113.324524,70.580032 
z"/>
<path fill="#232323" opacity="1.000000" stroke="none" 
	d="
M91.210739,68.449181 
	C92.091225,68.174919 93.593826,68.211266 93.652687,68.521515 
	C93.925888,69.961548 93.510620,71.558113 93.897873,72.943169 
	C94.269623,74.272789 95.324654,75.411369 96.079422,76.633896 
	C96.963676,75.342316 98.282425,74.155106 98.623993,72.733170 
	C99.067108,70.888443 98.732185,68.856834 98.732185,66.905670 
	C99.403061,66.924942 100.073944,66.944206 100.744820,66.963478 
	C100.744820,70.194611 101.248367,73.550690 100.493179,76.594452 
	C100.197464,77.786316 97.014709,79.010406 95.264816,78.858704 
	C93.836830,78.734909 91.960518,76.809372 91.412071,75.278259 
	C90.726364,73.363953 91.196602,71.035576 91.210739,68.449181 
z"/>
<path fill="#1E1E1E" opacity="1.000000" stroke="none" 
	d="
M49.142166,69.474655 
	C47.908298,72.911804 46.768818,75.982315 45.629337,79.052834 
	C45.120533,79.190552 44.611729,79.328278 44.102921,79.465996 
	C42.490227,75.446411 40.877533,71.426826 39.264839,67.407242 
	C39.824432,67.117172 40.384026,66.827095 40.943615,66.537025 
	C42.092041,68.625633 43.240463,70.714241 44.771690,73.499031 
	C45.602741,71.438072 46.177029,69.696480 47.021511,68.097595 
	C47.304203,67.562363 48.276459,67.391350 48.933517,67.053848 
	C49.034531,67.738571 49.135540,68.423302 49.142166,69.474655 
z"/>
<path fill="#181818" opacity="1.000000" stroke="none" 
	d="
M72.375183,76.267914 
	C70.051781,80.108223 67.068306,80.094711 64.257965,77.194260 
	C61.865799,74.725388 62.557362,69.704575 65.200935,67.791412 
	C67.745987,65.949554 70.241356,66.618591 72.639099,70.159119 
	C71.402939,69.938988 70.508141,69.557899 69.693115,69.685661 
	C68.420578,69.885132 66.486626,70.104912 66.125008,70.902153 
	C65.553673,72.161743 65.617706,74.138237 66.266739,75.356339 
	C66.635857,76.049095 68.697319,75.885361 70.005836,76.014137 
	C70.707726,76.083221 71.429031,75.955116 72.375183,76.267914 
z"/>
<path fill="#101010" opacity="1.000000" stroke="none" 
	d="
M81.768768,78.919876 
	C81.215904,77.060448 81.268570,75.235229 80.918907,73.490654 
	C80.538361,71.591988 79.784256,69.768204 79.072266,67.532639 
	C80.845268,67.532639 83.349426,67.532639 84.987404,67.532639 
	C84.413811,70.112442 83.878426,72.638527 83.282814,75.150330 
	C82.976242,76.443214 82.562408,77.710670 81.768768,78.919876 
z"/>
<path fill="#464646" opacity="1.000000" stroke="none" 
	d="
M16.472782,78.422310 
	C16.361782,74.296280 16.470940,70.569427 16.580099,66.842567 
	C17.235344,66.869446 17.890587,66.896324 18.545830,66.923195 
	C18.545830,70.858978 18.551769,74.794884 18.469063,78.728928 
	C18.468151,78.772217 17.310572,78.791176 16.472782,78.422310 
z"/>
<path fill="#242424" opacity="1.000000" stroke="none" 
	d="
M55.870071,78.935417 
	C55.429173,74.922745 55.429173,70.989929 55.429173,67.057106 
	C55.921200,67.059006 56.413227,67.060898 56.905254,67.062790 
	C57.608463,71.022041 58.802898,74.967720 55.870071,78.935417 
z"/>
<path fill="#666666" opacity="1.000000" stroke="none" 
	d="
M43.275505,62.833511 
	C43.703651,61.463623 44.557842,60.240288 45.412029,59.016953 
	C46.326580,59.982346 47.241127,60.947735 48.154808,62.304871 
	C46.669811,62.791100 45.185684,62.885586 43.275505,62.833511 
z"/>
<path fill="#767676" opacity="1.000000" stroke="none" 
	d="
M17.727112,82.142052 
	C18.077913,82.663864 17.978823,83.033562 17.955013,83.681793 
	C14.165209,83.610916 10.300122,83.261497 6.435036,82.912086 
	C6.457903,82.604698 6.480770,82.297318 6.503637,81.989937 
	C10.094831,81.989937 13.686023,81.989937 17.727112,82.142052 
z"/>
<path fill="#777777" opacity="1.000000" stroke="none" 
	d="
M114.384720,84.021851 
	C113.916626,83.573875 113.883583,83.213989 113.833069,82.574539 
	C117.337936,82.132843 120.860283,81.970718 124.382622,81.808594 
	C124.412697,82.174820 124.442772,82.541039 124.472847,82.907265 
	C121.255157,83.308159 118.037460,83.709045 114.384720,84.021851 
z"/>
<path fill="#666666" opacity="1.000000" stroke="none" 
	d="
M79.249176,62.816177 
	C79.643089,61.786598 80.440109,60.898388 81.237129,60.010178 
	C81.566444,60.654881 81.895767,61.299580 82.195541,62.307404 
	C81.328102,62.766201 80.490189,62.861877 79.249176,62.816177 
z"/>
<path fill="#FDFDFD" opacity="1.000000" stroke="none" 
	d="
M113.101257,71.050484 
	C111.972221,71.216873 111.066452,70.912811 110.160675,70.608749 
	C110.310768,70.219772 110.460854,69.830795 110.610947,69.441826 
	C111.515472,69.821228 112.419998,70.200630 113.101257,71.050484 
z"/>
</svg>